<svg width="232" height="118" viewBox="0 0 232 118" fill="none" xmlns="http://www.w3.org/2000/svg">
<rect x="98" width="36" height="36" rx="18" fill="#8173FF"/>
<path d="M116.001 9C116.601 9 117.122 9.41526 117.254 10.0006L117.966 13.1289C118.294 14.5759 119.424 15.7058 120.872 16.0349L124 16.7462C124.586 16.8793 125 17.3997 125 18C125 18.6003 124.586 19.1205 124 19.2536L120.872 19.9651C119.424 20.294 118.294 21.4239 117.966 22.8711L117.254 25.9994C117.122 26.5847 116.601 27 116.001 27C115.399 27 114.88 26.5847 114.746 25.9994L114.034 22.8711C113.706 21.4239 112.576 20.294 111.13 19.9651L108 19.2536C107.416 19.1205 107 18.6003 107 18C107 17.3997 107.416 16.8793 108 16.7462L111.13 16.0349C112.576 15.7058 113.706 14.5759 114.034 13.1289L114.746 10.0006C114.88 9.41526 115.399 9 116.001 9Z" fill="white"/>
<rect x="20" y="80" width="16" height="16" rx="8" fill="#E9E7FF"/>
<rect x="20" y="102" width="16" height="16" rx="8" fill="#B8B0FF"/>
<rect x="42" y="69" width="16" height="16" rx="8" fill="#E9E7FF"/>
<rect x="42" y="91" width="16" height="16" rx="8" fill="#B8B0FF"/>
<rect x="64" y="58" width="16" height="16" rx="8" fill="#E9E7FF"/>
<rect x="64" y="80" width="16" height="16" rx="8" fill="#B8B0FF"/>
<rect x="86" y="47" width="16" height="16" rx="8" fill="#E9E7FF"/>
<rect x="86" y="69" width="16" height="16" rx="8" fill="#B8B0FF"/>
<rect x="86" y="91" width="16" height="16" rx="8" fill="#B8B0FF"/>
<rect x="108" y="47" width="16" height="16" rx="8" fill="#8173FF"/>
<rect x="108" y="69" width="16" height="16" rx="8" fill="#8173FF"/>
<rect x="108" y="91" width="16" height="16" rx="8" fill="#8173FF"/>
<rect x="130" y="47" width="16" height="16" rx="8" fill="#E9E7FF"/>
<path d="M130 77C130 72.5817 133.582 69 138 69C142.418 69 146 72.5817 146 77C146 81.4183 142.418 85 138 85C133.582 85 130 81.4183 130 77Z" fill="#B8B0FF"/>
<rect x="130" y="91" width="16" height="16" rx="8" fill="#B8B0FF"/>
<path d="M152 66C152 61.5817 155.582 58 160 58C164.418 58 168 61.5817 168 66C168 70.4183 164.418 74 160 74C155.582 74 152 70.4183 152 66Z" fill="#E9E7FF"/>
<rect x="152" y="80" width="16" height="16" rx="8" fill="#B8B0FF"/>
<rect x="174" y="69" width="16" height="16" rx="8" fill="#E9E7FF"/>
<path d="M174 99C174 94.5817 177.582 91 182 91C186.418 91 190 94.5817 190 99C190 103.418 186.418 107 182 107C177.582 107 174 103.418 174 99Z" fill="#B8B0FF"/>
<path d="M196 88C196 83.5817 199.582 80 204 80C208.418 80 212 83.5817 212 88C212 92.4183 208.418 96 204 96C199.582 96 196 92.4183 196 88Z" fill="#E9E7FF"/>
<rect x="196" y="102" width="16" height="16" rx="8" fill="#B8B0FF"/>
</svg>
